<svg width="33" height="35" viewBox="0 0 33 35" fill="none" xmlns="http://www.w3.org/2000/svg">
<path fill-rule="evenodd" clip-rule="evenodd" d="M21.375 0.0312501H14.784C11.7973 0.0312501 9.43125 0.0312501 7.58038 0.279875C5.67588 0.536625 4.13375 1.07613 2.91663 2.29163C1.70113 3.50875 1.16163 5.05088 0.904875 6.95538C0.65625 8.80788 0.65625 11.1723 0.65625 14.159V24C0.655958 25.4519 1.17407 26.8562 2.11728 27.96C3.0605 29.0638 4.36682 29.7945 5.801 30.0206C6.02362 31.2621 6.45425 32.3216 7.3155 33.1845C8.29375 34.1628 9.5255 34.582 10.988 34.7803C12.3969 34.9688 14.1892 34.9688 16.4106 34.9688H21.4644C23.6858 34.9688 25.4781 34.9688 26.887 34.7803C28.3495 34.582 29.5813 34.1628 30.5595 33.1845C31.5378 32.2062 31.957 30.9745 32.1553 29.512C32.3438 28.1031 32.3438 26.3108 32.3438 24.0894V15.7856C32.3438 13.5642 32.3438 11.7719 32.1553 10.363C31.957 8.9005 31.5378 7.66875 30.5595 6.6905C29.6966 5.82925 28.6371 5.39862 27.3956 5.176C27.1695 3.74182 26.4388 2.4355 25.335 1.49228C24.2312 0.549072 22.8269 0.0309585 21.375 0.0312501ZM24.8362 4.94037C24.5892 4.21887 24.1226 3.5927 23.502 3.1495C22.8813 2.70631 22.1376 2.46829 21.375 2.46875H14.875C11.7761 2.46875 9.57588 2.472 7.90375 2.69625C6.27063 2.91563 5.32813 3.32837 4.64075 4.01575C3.95338 4.70312 3.54063 5.64563 3.32125 7.27875C3.097 8.95088 3.09375 11.1511 3.09375 14.25V24C3.09329 24.7626 3.33131 25.5063 3.7745 26.127C4.2177 26.7476 4.84387 27.2142 5.56537 27.4612C5.53125 26.47 5.53125 25.3488 5.53125 24.0894V15.7856C5.53125 13.5642 5.53125 11.7719 5.72137 10.363C5.91638 8.9005 6.33888 7.66875 7.3155 6.6905C8.29375 5.71225 9.5255 5.293 10.988 5.09637C12.3969 4.90625 14.1892 4.90625 16.4106 4.90625H21.4644C22.7238 4.90625 23.845 4.90625 24.8362 4.94037ZM9.038 8.41625C9.48812 7.96612 10.1186 7.67362 11.313 7.51275C12.5382 7.34863 14.1665 7.34538 16.4984 7.34538H21.3734C23.7052 7.34538 25.3319 7.34863 26.5604 7.51275C27.7531 7.67362 28.3836 7.96775 28.8337 8.41625C29.2839 8.86637 29.5764 9.49687 29.7372 10.6912C29.9014 11.9165 29.9046 13.5448 29.9046 15.8766V24.0016C29.9046 26.3335 29.9014 27.9601 29.7372 29.1886C29.5764 30.3814 29.2822 31.0119 28.8337 31.462C28.3836 31.9121 27.7531 32.2046 26.5588 32.3655C25.3319 32.5296 23.7052 32.5329 21.3734 32.5329H16.4984C14.1665 32.5329 12.5382 32.5296 11.3114 32.3655C10.1186 32.2046 9.48812 31.9105 9.038 31.462C8.58787 31.0119 8.29538 30.3814 8.1345 29.187C7.97038 27.9601 7.96712 26.3335 7.96712 24.0016V15.8766C7.96712 13.5448 7.97038 11.9165 8.1345 10.6896C8.29538 9.49687 8.5895 8.86637 9.038 8.41625Z" fill="#00B96F"/>
</svg>
